<?xml version="1.0" standalone="no"?>
<!DOCTYPE svg PUBLIC "-//W3C//DTD SVG 20010904//EN"
 "http://www.w3.org/TR/2001/REC-SVG-20010904/DTD/svg10.dtd">
<svg version="1.0" xmlns="http://www.w3.org/2000/svg"
 width="558.000000pt" height="518.000000pt" viewBox="0 0 558.000000 518.000000"
 preserveAspectRatio="xMidYMid meet">

<g transform="translate(0.000000,518.000000) scale(0.100000,-0.100000)"
fill="#000000" stroke="none">
<path d="M4840 4663 c-513 -522 -1528 -1552 -1850 -1877 -190 -192 -334 -343
-320 -334 14 8 140 84 280 168 257 155 327 199 610 385 85 56 171 111 190 122
121 73 190 13 237 -204 26 -116 25 -496 0 -608 -33 -144 -125 -333 -218 -451
-214 -270 -530 -414 -909 -414 -116 0 -282 20 -334 40 -26 9 -43 0 -264 -146
-131 -85 -266 -174 -302 -196 -77 -48 -79 -44 75 -119 233 -112 438 -159 731
-166 375 -10 622 40 911 184 274 136 511 355 679 628 87 140 130 243 182 430
56 198 66 278 66 525 0 214 -2 235 -34 415 -33 181 -35 201 -35 415 1 252 12
335 69 535 42 149 68 218 139 367 70 148 195 352 302 492 15 20 25 36 23 36
-3 0 -105 -102 -228 -227z"/>
<path d="M1652 4400 c-244 -4 -445 -10 -447 -12 -2 -2 66 -66 152 -143 86 -77
227 -204 314 -282 l158 -143 493 0 c271 0 545 -5 608 -10 112 -11 302 -49 340
-70 16 -9 60 14 257 131 131 78 262 156 291 174 l53 33 -33 25 c-65 50 -251
146 -351 182 -123 44 -276 81 -417 101 -132 19 -785 25 -1418 14z"/>
<path d="M1695 3118 c-121 -110 -250 -229 -287 -263 l-66 -61 5 -470 c6 -495
0 -627 -38 -816 -25 -127 -70 -252 -126 -358 -90 -167 -152 -242 -451 -542
-129 -131 -232 -238 -228 -238 22 0 653 532 1031 870 78 69 190 168 249 220
60 52 114 100 120 105 17 16 298 260 329 286 l28 24 -89 -3 c-110 -5 -176 19
-216 77 l-26 37 0 667 c0 367 -3 667 -7 667 -5 0 -107 -91 -228 -202z"/>
</g>
</svg>
